# xmcd
#
# Track frame offsets:
#	150
#	26905
#	42178
#	57992
#	70481
#	89596
#	104358
#	126884
#	148539
#	167552
#	180523
#	192477
#	208243
#	220552
#	235994
#	252622
#	265381
#	285099
#	303923
#	321711
#	343320
#
# Disc length: 4793 seconds
#
# Revision: 0
# Processed by: cddbd v1.5.2PL0 Copyright (c) Steve Scherf et al.
# Submitted via: EasyCDDAExtractor 2010.6.0.0
#
DISCID=4f12b715
DTITLE=Various Artist - Akella Presents - Country-Blues - vol.29  CD1
DYEAR=2011
DGENRE=Blues
TTITLE0=BRIAN KRAMER and THE COUCH LIZARDS - What She Would Say
TTITLE1=TISHAMINGO - Devil's Love Song
TTITLE2=HANS THESSINK - Let Go
TTITLE3=GORDON HASKELL - Freeway To Her Dreams
TTITLE4=TY CURTIS BAND - Treat Me This Way
TTITLE5=WALTER TROUT - Hudson Had Help
TTITLE6=DELTA MOON - Stuck In Carolina
TTITLE7=MARK KNOPFLER - Behind With The Rent
TTITLE8=PONTY BONE - Just Like Home
TTITLE9=DANNY SHIRLEY - Don't Rock The Jukebox
TTITLE10=J.J. CALE - Waymore's Blues
TTITLE11=GORDIE TENTREES - Ross River
TTITLE12=MATT WOODS - When The Good Times Are Gone
TTITLE13=BIG HOUSE - Somebody to Love
TTITLE14=BO RAMSEY - Same For You
TTITLE15=INNES SIBUN - Southbound Train
TTITLE16=ROB ORLEMANS - Your Rainy Day
TTITLE17=JOHN FOGERTY - Don't You Wish It Was True
TTITLE18=CHRIS ISAAK - Dancin'
TTITLE19=MILLER ANDERSON - Rich Man,Poor Man
TTITLE20=COLIN LINDEN - God Will Always Remember Your Prayers
EXTD=
EXTT0=
EXTT1=
EXTT2=
EXTT3=
EXTT4=
EXTT5=
EXTT6=
EXTT7=
EXTT8=
EXTT9=
EXTT10=
EXTT11=
EXTT12=
EXTT13=
EXTT14=
EXTT15=
EXTT16=
EXTT17=
EXTT18=
EXTT19=
EXTT20=
PLAYORDER=
